<?xml version="1.0" encoding="UTF-8"?>
<svg version="1.1" xmlns="http://www.w3.org/2000/svg" width="172" height="174">
<path d="M0 0 C56.76 0 113.52 0 172 0 C172 57.42 172 114.84 172 174 C115.24 174 58.48 174 0 174 C0 116.58 0 59.16 0 0 Z " fill="#5D5FE7" transform="translate(0,0)"/>
<path d="M0 0 C4.29 0 8.58 0 13 0 C13.66 8.58 14.32 17.16 15 26 C15.94632099 18.19213868 15.94632099 18.19213868 16.88452148 10.38330078 C17.00384033 9.41376465 17.12315918 8.44422852 17.24609375 7.4453125 C17.36654053 6.45031738 17.4869873 5.45532227 17.61108398 4.43017578 C18 2 18 2 19 0 C23.62 0 28.24 0 33 0 C34.27041977 9.04039783 35.34915606 17.84435229 35 27 C35.66 27 36.32 27 37 27 C36.938125 25.700625 36.87625 24.40125 36.8125 23.0625 C36.77868863 15.25207268 38.51189521 7.63539481 40 0 C44.29 0 48.58 0 53 0 C52.80664062 1.78921875 52.61328125 3.5784375 52.4140625 5.421875 C52.15089389 7.86456742 51.88788413 10.30727695 51.625 12.75 C51.48852051 14.01650391 51.35204102 15.28300781 51.21142578 16.58789062 C50.30502177 25.03912046 49.43273693 33.49268356 48.64697266 41.95605469 C48.31414751 45.42192377 47.84720296 48.61118816 47 52 C41.39 52 35.78 52 30 52 C27.76080449 43.41641722 26.56892904 35.86090298 27 27 C26.34 27 25.68 27 25 27 C25.02320312 27.55945313 25.04640625 28.11890625 25.0703125 28.6953125 C25.24004899 36.23646221 24.41168085 43.59125161 23 51 C22 52 22 52 18.18359375 52.09765625 C16.60153318 52.09098089 15.01948841 52.07901875 13.4375 52.0625 C12.63119141 52.05798828 11.82488281 52.05347656 10.99414062 52.04882812 C8.99606244 52.03700518 6.99802217 52.01906914 5 52 C4.44826549 47.32271767 3.89693017 42.64538851 3.34594727 37.96801758 C3.1588796 36.38043988 2.97170731 34.79287451 2.78442383 33.20532227 C2.34032486 29.44054725 1.89729413 25.67565467 1.45727539 21.91040039 C1.19068566 19.63065254 0.92246436 17.3510922 0.65014648 15.07202148 C0.05590578 9.98960255 -0.08107213 5.10754406 0 0 Z " fill="#FBFBFE" transform="translate(45,63)"/>
<path d="M0 0 C2.50152344 1.79596554 3.83668724 3.13717918 5.4375 5.75 C5.82207675 9.13427538 5.57249016 12.33024929 5.4375 15.75 C1.1475 15.75 -3.1425 15.75 -7.5625 15.75 C-7.5625 13.11 -7.5625 10.47 -7.5625 7.75 C-8.5525 8.08 -9.5425 8.41 -10.5625 8.75 C-10.37675821 13.11758541 -10.22149925 15.12689178 -6.98046875 18.19140625 C-5.91441406 18.89136719 -4.84835938 19.59132813 -3.75 20.3125 C0.81445851 23.34249986 3.89861361 25.8286515 6.4375 30.75 C7.00390625 34.44140625 7.00390625 34.44140625 7 38.3125 C7.02191406 39.59253906 7.04382813 40.87257812 7.06640625 42.19140625 C6.28567283 46.6090966 4.90478982 47.99113486 1.4375 50.75 C-3.32795291 53.90783024 -9.07451812 53.36629743 -14.5625 52.75 C-17.87707593 51.40898836 -20.04416106 49.26833894 -22.5625 46.75 C-24.12878592 42.21860677 -23.62473242 37.47966411 -23.5625 32.75 C-19.2725 32.75 -14.9825 32.75 -10.5625 32.75 C-10.5625 36.38 -10.5625 40.01 -10.5625 43.75 C-9.0775 43.255 -9.0775 43.255 -7.5625 42.75 C-7.5625 39.45 -7.5625 36.15 -7.5625 32.75 C-8.8825 32.09 -10.2025 31.43 -11.5625 30.75 C-22.90185421 23.79949536 -22.90185421 23.79949536 -24.5625 17.75 C-25.07570307 13.0707955 -25.18952551 9.15334282 -23.25 4.8125 C-17.2707056 -2.49552649 -8.83434932 -3.09977169 0 0 Z " fill="#F8F9FE" transform="translate(123.5625,63.25)"/>
</svg>
